<?xml version="1.0" encoding="utf-8"?>
<!-- Generator: Adobe Illustrator 17.1.0, SVG Export Plug-In . SVG Version: 6.00 Build 0)  -->
<!DOCTYPE svg PUBLIC "-//W3C//DTD SVG 1.1//EN" "http://www.w3.org/Graphics/SVG/1.1/DTD/svg11.dtd">
<svg version="1.1"
	 id="svg4764" sodipodi:docname="rail-12.svg" inkscape:version="0.48.2 r9819" xmlns:svg="http://www.w3.org/2000/svg" xmlns:rdf="http://www.w3.org/1999/02/22-rdf-syntax-ns#" xmlns:inkscape="http://www.inkscape.org/namespaces/inkscape" xmlns:sodipodi="http://sodipodi.sourceforge.net/DTD/sodipodi-0.dtd" xmlns:dc="http://purl.org/dc/elements/1.1/" xmlns:cc="http://creativecommons.org/ns#"
	 xmlns="http://www.w3.org/2000/svg" xmlns:xlink="http://www.w3.org/1999/xlink" x="0px" y="0px" viewBox="0 0 12 12"
	 enable-background="new 0 0 12 12" xml:space="preserve">
<sodipodi:namedview  inkscape:window-maximized="0" inkscape:window-y="265" inkscape:window-x="164" inkscape:current-layer="layer1" inkscape:document-units="px" inkscape:pageopacity="0.0" inkscape:window-width="957" inkscape:guide-bbox="true" inkscape:window-height="704" inkscape:pageshadow="2" showguides="true" bordercolor="#666666" pagecolor="#ffffff" id="base" inkscape:cy="4.7770366" showgrid="true" inkscape:zoom="22.627417" borderopacity="1.0" inkscape:cx="8.7068106">
	<inkscape:grid  type="xygrid" snapvisiblegridlinesonly="true" empspacing="5" enabled="true" visible="true" id="grid4772">
		</inkscape:grid>
	<sodipodi:guide  id="guide4789" position="2,12" orientation="0,1"></sodipodi:guide>
	<sodipodi:guide  id="guide4791" position="12,10" orientation="1,0"></sodipodi:guide>
	<sodipodi:guide  id="guide4793" position="10,0" orientation="0,1"></sodipodi:guide>
	<sodipodi:guide  id="guide4795" position="0,9" orientation="1,0"></sodipodi:guide>
	<sodipodi:guide  id="guide4797" position="5,11" orientation="0,1"></sodipodi:guide>
	<sodipodi:guide  id="guide4799" position="11,7" orientation="1,0"></sodipodi:guide>
	<sodipodi:guide  id="guide4801" position="9,2" orientation="0,1"></sodipodi:guide>
	<sodipodi:guide  id="guide4803" position="2,5" orientation="1,0"></sodipodi:guide>
</sodipodi:namedview>
<g>
	<path opacity="0.3" fill="#FFFFFF" stroke="#FFFFFF" stroke-width="2" stroke-linejoin="round" enable-background="new    " d="
		M8.7,4H7.1V2.3l2.7-1.2L7.8,1L1.3,3.8l0,1.1l5.3-2.4V4H5L3.4,5.2v4.7c0,0.3,0.8,1.1,1.1,1.1h4.8c0.3,0,1.1-0.8,1.1-1.1V5.2L8.7,4z"
		/>
	
		<path id="rect8366-0" inkscape:connector-curvature="0" sodipodi:nodetypes="cccccccccccccccccccccccssssssssss" fill="#444444" d="
		M5,4L3.4,5.2v4.7c0,0.3,0.8,1.1,1.1,1.1h0.8h1.9h1.3h0.8c0.3,0,1.1-0.8,1.1-1.1V5.2L8.7,4H5z M5,4.9h3.9l0.8,0.8v1.6H4.2V5.7L5,4.9
		z"/>
	<rect x="6.6" y="1.9" fill="#444444" width="0.5" height="8.6"/>
	<polygon fill="#444444" points="1.3,4.9 9.8,1.1 7.8,1.1 1.3,3.8 	"/>
</g>
</svg>
