<?xml version="1.0" encoding="utf-8"?>
<!-- Generator: Adobe Illustrator 17.1.0, SVG Export Plug-In . SVG Version: 6.00 Build 0)  -->
<!DOCTYPE svg PUBLIC "-//W3C//DTD SVG 1.1//EN" "http://www.w3.org/Graphics/SVG/1.1/DTD/svg11.dtd">
<svg version="1.1"
	 id="svg4460" sodipodi:docname="rail-24.svg" inkscape:version="0.48.2 r9819" xmlns:svg="http://www.w3.org/2000/svg" xmlns:rdf="http://www.w3.org/1999/02/22-rdf-syntax-ns#" xmlns:inkscape="http://www.inkscape.org/namespaces/inkscape" xmlns:sodipodi="http://sodipodi.sourceforge.net/DTD/sodipodi-0.dtd" xmlns:dc="http://purl.org/dc/elements/1.1/" xmlns:cc="http://creativecommons.org/ns#"
	 xmlns="http://www.w3.org/2000/svg" xmlns:xlink="http://www.w3.org/1999/xlink" x="0px" y="0px" viewBox="0 0 24 24"
	 enable-background="new 0 0 24 24" xml:space="preserve">
<sodipodi:namedview  inkscape:window-maximized="0" inkscape:window-y="20" inkscape:window-x="56" inkscape:current-layer="layer1" inkscape:document-units="px" inkscape:pageopacity="0.0" inkscape:window-width="1220" inkscape:guide-bbox="true" inkscape:window-height="833" inkscape:pageshadow="2" showguides="true" bordercolor="#666666" pagecolor="#ffffff" id="base" inkscape:cy="-0.15638252" showgrid="true" inkscape:zoom="11.313708" borderopacity="1.0" inkscape:cx="15.622727">
	<inkscape:grid  type="xygrid" snapvisiblegridlinesonly="true" empspacing="5" enabled="true" visible="true" id="grid4468">
		</inkscape:grid>
	<sodipodi:guide  id="guide4470" position="0,20" orientation="1,0"></sodipodi:guide>
	<sodipodi:guide  id="guide4472" position="4,24" orientation="0,1"></sodipodi:guide>
	<sodipodi:guide  id="guide4474" position="24,13" orientation="1,0"></sodipodi:guide>
	<sodipodi:guide  id="guide4476" position="15,0" orientation="0,1"></sodipodi:guide>
	<sodipodi:guide  id="guide4478" position="23,20" orientation="1,0"></sodipodi:guide>
	<sodipodi:guide  id="guide4480" position="20,23" orientation="0,1"></sodipodi:guide>
	<sodipodi:guide  id="guide4482" position="2,5" orientation="1,0"></sodipodi:guide>
	<sodipodi:guide  id="guide4484" position="7,2" orientation="0,1"></sodipodi:guide>
</sodipodi:namedview>
<path opacity="0.3" fill="#FFFFFF" stroke="#FFFFFF" stroke-width="2" stroke-linejoin="round" enable-background="new    " d="
	M16,6.8h-3V3.6l5.1-2.3l-3.9,0L2.1,6.4l0,2.1L12,4.1v2.7H9L6,9.1V18c0,0.5,1.5,2,2,2h9c0.5,0,2-1.5,2-2V9.1L16,6.8z"/>
<path id="rect8366-0" inkscape:connector-curvature="0" sodipodi:nodetypes="cccccccccccccccccccccccssssssssss" fill="#444444" d="
	M9,6.8L6,9.1V18c0,0.5,1.5,2,2,2h1.5H13h2.5H17c0.5,0,2-1.5,2-2V9.1l-3-2.3H9z M10,8.5h5l2,1.4v3H8v-3L10,8.5z"/>
<rect x="12" y="2.9" fill="#444444" width="1" height="16.1"/>
<polygon fill="#444444" points="2.1,8.5 18.1,1.3 14.3,1.3 2.1,6.5 "/>
</svg>
